<svg width="348" height="89" viewBox="0 0 348 89" fill="none" xmlns="http://www.w3.org/2000/svg">
<g filter="url(#filter0_d_283_42)">
<path d="M93.2291 42.36V40.92H86.5571V35.16H94.0691V33.6H84.8051V48H86.5571V42.36H93.2291ZM99.9156 46.896C98.1156 46.896 97.5156 46.104 97.5156 45.072C97.5156 43.752 98.4276 43.056 100.108 43.056H103.708V43.896C103.708 45.624 102.172 46.896 99.9156 46.896ZM103.852 48H105.34V40.632C105.34 37.992 104.02 36.576 100.972 36.576C98.6916 36.576 97.0596 37.728 96.4596 39.408L98.0196 39.984C98.4756 38.784 99.3876 37.968 100.948 37.968C103.012 37.968 103.708 38.928 103.708 40.656V42H99.8916C97.2036 42 95.9556 43.344 95.9556 45.192C95.9556 47.4 97.2756 48.24 99.3876 48.24C101.5 48.24 102.892 47.208 103.516 45.552H103.852V48ZM115.289 46.56C113.681 46.56 111.953 46.824 110.489 47.112L110.273 46.704L118.097 38.328V36.84H108.905V38.304H111.281C112.961 38.304 114.809 38.04 116.297 37.776L116.513 38.16L108.689 46.512V48H118.193V46.56H115.289ZM126.271 37.848C128.623 37.848 129.583 39.24 129.631 41.688H122.647C122.839 39.144 124.087 37.848 126.271 37.848ZM126.391 48.264C129.199 48.264 130.543 46.968 131.071 44.808L129.631 44.4C129.247 45.792 128.575 46.896 126.391 46.896C123.943 46.896 122.743 45.432 122.623 42.84H131.119C131.167 42.432 131.167 41.928 131.167 41.688C131.167 38.592 129.607 36.576 126.319 36.576C123.031 36.576 120.967 38.76 120.967 42.456C120.967 46.128 122.911 48.264 126.391 48.264ZM136.212 48V42.648C136.212 39.624 137.388 38.4 140.1 38.4H140.244V36.6H140.1C138.324 36.6 137.052 37.536 136.404 39.6L136.116 39.576V36.84H134.58V48H136.212ZM153.931 48.264C157.435 48.264 159.355 46.008 159.355 42.384C159.355 38.736 157.243 36.576 153.931 36.576C150.595 36.576 148.507 38.736 148.507 42.384C148.507 46.008 150.403 48.264 153.931 48.264ZM153.931 37.968C156.451 37.968 157.675 39.6 157.675 42.36C157.675 45.12 156.523 46.872 153.907 46.872C151.267 46.872 150.163 45.12 150.163 42.36C150.163 39.6 151.387 37.968 153.931 37.968ZM164.337 48V42.648C164.337 39.624 165.513 38.4 168.225 38.4H168.369V36.6H168.225C166.449 36.6 165.177 37.536 164.529 39.6L164.241 39.576V36.84H162.705V48H164.337ZM179.246 40.704L180.758 40.344C180.278 37.872 178.982 36.576 176.03 36.576C172.742 36.576 170.702 38.76 170.702 42.456C170.702 45.672 172.19 47.736 174.926 48.168L174.254 49.656L174.806 49.944C175.094 49.848 175.43 49.776 175.934 49.776C176.582 49.776 177.11 50.016 177.11 50.592C177.11 51.024 176.846 51.528 175.886 51.528C174.998 51.528 174.542 51.168 174.206 50.88L173.534 51.624C174.038 52.176 174.902 52.464 175.934 52.464C177.806 52.464 178.118 51.216 178.118 50.664C178.118 49.584 177.254 49.176 176.03 49.176C175.742 49.176 175.478 49.2 175.19 49.272L175.67 48.264C175.79 48.264 175.934 48.264 176.078 48.264C178.838 48.264 180.278 46.944 180.806 44.616L179.318 44.136C178.91 45.6 178.238 46.824 176.078 46.824C173.534 46.824 172.382 45.096 172.382 42.432C172.382 39.528 173.63 38.016 175.982 38.016C178.214 38.016 178.838 39.024 179.246 40.704ZM187.244 46.896C185.444 46.896 184.844 46.104 184.844 45.072C184.844 43.752 185.756 43.056 187.436 43.056H191.036V43.896C191.036 45.624 189.5 46.896 187.244 46.896ZM191.18 48H192.668V40.632C192.668 37.992 191.348 36.576 188.3 36.576C186.02 36.576 184.388 37.728 183.788 39.408L185.348 39.984C185.804 38.784 186.716 37.968 188.276 37.968C190.34 37.968 191.036 38.928 191.036 40.656V42H187.22C184.532 42 183.284 43.344 183.284 45.192C183.284 47.4 184.604 48.24 186.716 48.24C188.828 48.24 190.22 47.208 190.844 45.552H191.18V48ZM198.345 41.784C198.345 39.672 200.049 38.088 202.353 38.088C203.985 38.088 204.753 39.048 204.753 40.776V48H206.409V41.784C206.409 39.672 207.993 38.088 210.417 38.088C212.049 38.088 212.817 39.048 212.817 40.776V48H214.473V40.416C214.473 37.92 213.057 36.576 211.017 36.576C208.569 36.576 207.249 38.064 206.601 39.768H206.169C205.977 37.68 204.777 36.576 202.977 36.576C200.841 36.576 199.401 37.896 198.657 39.6H198.297V36.84H196.713V48H198.345V41.784ZM223.021 37.848C225.373 37.848 226.333 39.24 226.381 41.688H219.397C219.589 39.144 220.837 37.848 223.021 37.848ZM223.141 48.264C225.949 48.264 227.293 46.968 227.821 44.808L226.381 44.4C225.997 45.792 225.325 46.896 223.141 46.896C220.693 46.896 219.493 45.432 219.373 42.84H227.869C227.917 42.432 227.917 41.928 227.917 41.688C227.917 38.592 226.357 36.576 223.069 36.576C219.781 36.576 217.717 38.76 217.717 42.456C217.717 46.128 219.661 48.264 223.141 48.264ZM232.962 41.784C232.962 39.672 234.666 38.088 236.97 38.088C238.722 38.088 239.37 39.048 239.37 40.776V48H241.026V40.416C241.026 37.92 239.73 36.576 237.546 36.576C235.554 36.576 233.97 37.968 233.226 39.6H232.914V36.84H231.33V48H232.962V41.784ZM245.737 44.736C245.737 46.8 246.745 48.264 248.977 48.264C249.913 48.264 250.513 48.144 251.281 47.904L251.041 46.488C250.369 46.68 249.889 46.776 249.241 46.776C247.921 46.776 247.369 46.056 247.369 44.664V38.208H251.161V36.84H247.369V33.6H245.737V36.84H243.865V38.208H245.737V44.736ZM258.861 48.264C262.365 48.264 264.285 46.008 264.285 42.384C264.285 38.736 262.173 36.576 258.861 36.576C255.525 36.576 253.437 38.736 253.437 42.384C253.437 46.008 255.333 48.264 258.861 48.264ZM258.861 37.968C261.381 37.968 262.605 39.6 262.605 42.36C262.605 45.12 261.453 46.872 258.837 46.872C256.197 46.872 255.093 45.12 255.093 42.36C255.093 39.6 256.317 37.968 258.861 37.968Z" fill="#202020"/>
<rect x="12.5" y="8.5" width="323" height="64" rx="7.5" stroke="url(#paint0_linear_283_42)"/>
</g>
<defs>
<filter id="filter0_d_283_42" x="0" y="0" width="348" height="89" filterUnits="userSpaceOnUse" color-interpolation-filters="sRGB">
<feFlood flood-opacity="0" result="BackgroundImageFix"/>
<feColorMatrix in="SourceAlpha" type="matrix" values="0 0 0 0 0 0 0 0 0 0 0 0 0 0 0 0 0 0 127 0" result="hardAlpha"/>
<feOffset dy="4"/>
<feGaussianBlur stdDeviation="6"/>
<feColorMatrix type="matrix" values="0 0 0 0 0 0 0 0 0 0 0 0 0 0 0 0 0 0 0.1 0"/>
<feBlend mode="normal" in2="BackgroundImageFix" result="effect1_dropShadow_283_42"/>
<feBlend mode="normal" in="SourceGraphic" in2="effect1_dropShadow_283_42" result="shape"/>
</filter>
<linearGradient id="paint0_linear_283_42" x1="80.3611" y1="13.9642" x2="87.7719" y2="87.2497" gradientUnits="userSpaceOnUse">
<stop stop-color="#E40303"/>
<stop offset="0.206999" stop-color="#FF8C00"/>
<stop offset="0.410132" stop-color="#FFED00"/>
<stop offset="0.628891" stop-color="#008026"/>
<stop offset="0.816399" stop-color="#004DFF"/>
<stop offset="1" stop-color="#750787"/>
</linearGradient>
</defs>
</svg>
