<svg width="830" height="890" viewBox="0 0 830 890" fill="none" xmlns="http://www.w3.org/2000/svg">
<path fill-rule="evenodd" clip-rule="evenodd" d="M420.389 620.759C571.555 580.254 661.263 424.875 620.758 273.709C580.253 122.544 424.874 32.8359 273.709 73.3406C122.544 113.845 32.8355 269.224 73.3401 420.39C113.845 571.555 269.224 661.263 420.389 620.759ZM419.075 614.777C566.828 575.187 654.511 423.315 614.921 275.561C575.331 127.808 423.458 40.1247 275.705 79.7151C127.952 119.305 40.2684 271.178 79.8587 418.931C119.449 566.684 271.321 654.368 419.075 614.777Z" fill="url(#paint0_linear_283_28)"/>
<path fill-rule="evenodd" clip-rule="evenodd" d="M559.674 815.61C673.424 785.131 741.442 670.129 711.597 558.745C681.752 447.362 565.345 381.776 451.595 412.255C337.845 442.734 269.827 557.737 299.672 669.12C329.517 780.504 445.924 846.09 559.674 815.61ZM558.709 811.202C669.892 781.411 736.375 669.004 707.203 560.135C678.032 451.265 564.253 387.16 453.07 416.951C341.888 446.742 275.405 559.149 304.576 668.018C333.748 776.888 447.527 840.993 558.709 811.202Z" fill="url(#paint1_linear_283_28)" fill-opacity="0.68"/>
<g filter="url(#filter0_b_283_28)">
<path fill-rule="evenodd" clip-rule="evenodd" d="M532.531 285.9C599.732 267.894 639.916 199.952 622.284 134.148C604.652 68.3446 535.881 29.5975 468.679 47.6041C401.478 65.6108 361.294 133.552 378.926 199.356C396.558 265.16 465.329 303.907 532.531 285.9ZM531.961 283.296C597.646 265.696 636.923 199.287 619.689 134.969C602.455 70.6507 535.236 32.7781 469.551 50.3783C403.866 67.9785 364.589 134.387 381.823 198.705C399.057 263.023 466.276 300.896 531.961 283.296Z" fill="url(#paint2_linear_283_28)" fill-opacity="0.26"/>
</g>
<defs>
<filter id="filter0_b_283_28" x="364.776" y="33.1924" width="271.657" height="267.119" filterUnits="userSpaceOnUse" color-interpolation-filters="sRGB">
<feFlood flood-opacity="0" result="BackgroundImageFix"/>
<feGaussianBlur in="BackgroundImage" stdDeviation="5"/>
<feComposite in2="SourceAlpha" operator="in" result="effect1_backgroundBlur_283_28"/>
<feBlend mode="normal" in="SourceGraphic" in2="effect1_backgroundBlur_283_28" result="shape"/>
</filter>
<linearGradient id="paint0_linear_283_28" x1="128.959" y1="165.962" x2="512.79" y2="596" gradientUnits="userSpaceOnUse">
<stop stop-color="#E40303"/>
<stop offset="0.206999" stop-color="#FF8C00"/>
<stop offset="0.410132" stop-color="#FFED00"/>
<stop offset="0.628891" stop-color="#008026"/>
<stop offset="0.816399" stop-color="#004DFF"/>
<stop offset="1" stop-color="#750787"/>
</linearGradient>
<linearGradient id="paint1_linear_283_28" x1="342.462" y1="481.165" x2="623.786" y2="801.734" gradientUnits="userSpaceOnUse">
<stop stop-color="#E40303"/>
<stop offset="0.206999" stop-color="#FF8C00"/>
<stop offset="0.410132" stop-color="#FFED00"/>
<stop offset="0.628891" stop-color="#008026"/>
<stop offset="0.816399" stop-color="#004DFF"/>
<stop offset="1" stop-color="#750787"/>
</linearGradient>
<linearGradient id="paint2_linear_283_28" x1="404.205" y1="88.315" x2="570.407" y2="277.703" gradientUnits="userSpaceOnUse">
<stop stop-color="#E40303"/>
<stop offset="0.206999" stop-color="#FF8C00"/>
<stop offset="0.410132" stop-color="#FFED00"/>
<stop offset="0.628891" stop-color="#008026"/>
<stop offset="0.816399" stop-color="#004DFF"/>
<stop offset="1" stop-color="#750787"/>
</linearGradient>
</defs>
</svg>
