<svg width="256" height="44" viewBox="0 0 256 44" fill="none" xmlns="http://www.w3.org/2000/svg">
<path d="M120.397 37.9758C120.041 37.9758 119.739 37.8648 119.493 37.6428C119.273 37.3931 119.164 37.0879 119.164 36.7271V16.4576C119.164 16.0692 119.273 15.764 119.493 15.542C119.739 15.32 120.041 15.209 120.397 15.209C120.781 15.209 121.083 15.32 121.302 15.542C121.521 15.764 121.631 16.0692 121.631 16.4576V19.0382C122.426 17.7618 123.427 16.7629 124.633 16.0414C125.867 15.32 127.224 14.9593 128.704 14.9593C129.746 14.9593 130.555 15.0841 131.131 15.3339C131.706 15.5836 131.926 16.0276 131.788 16.6657C131.706 17.082 131.514 17.3317 131.213 17.4149C130.911 17.4982 130.541 17.512 130.102 17.4565C129.691 17.3733 129.225 17.3317 128.704 17.3317C127.333 17.3317 126.113 17.623 125.044 18.2057C123.975 18.7884 123.139 19.5931 122.536 20.6198C121.933 21.6187 121.631 22.7702 121.631 24.0743V36.7271C121.631 37.0879 121.521 37.3931 121.302 37.6428C121.083 37.8648 120.781 37.9758 120.397 37.9758Z" fill="#1F1F1F"/>
<path d="M143.056 38.1839C140.89 38.1839 138.957 37.6983 137.258 36.7271C135.585 35.7282 134.269 34.3547 133.31 32.6066C132.35 30.8586 131.87 28.8607 131.87 26.6132C131.87 24.3379 132.323 22.3401 133.228 20.6198C134.132 18.8717 135.38 17.4982 136.97 16.4993C138.56 15.5004 140.383 15.0009 142.439 15.0009C144.468 15.0009 146.264 15.4865 147.826 16.4576C149.389 17.4011 150.609 18.7191 151.486 20.4116C152.364 22.0765 152.802 24.0049 152.802 26.197C152.802 26.5577 152.693 26.8491 152.473 27.071C152.254 27.2653 151.966 27.3624 151.61 27.3624H134.379C134.461 29.0272 134.886 30.4978 135.654 31.7742C136.421 33.0506 137.436 34.0495 138.697 34.7709C139.985 35.4924 141.438 35.8531 143.056 35.8531C144.125 35.8531 145.194 35.6727 146.264 35.312C147.36 34.9236 148.224 34.4241 148.854 33.8137C149.074 33.5917 149.334 33.4807 149.636 33.4807C149.965 33.4529 150.239 33.5362 150.458 33.7304C150.76 33.9801 150.911 34.2576 150.911 34.5628C150.938 34.8681 150.815 35.1455 150.54 35.3953C149.663 36.1999 148.512 36.8659 147.086 37.3931C145.688 37.9203 144.344 38.1839 143.056 38.1839ZM142.439 17.3317C141.014 17.3317 139.725 17.6647 138.574 18.3306C137.422 18.9965 136.476 19.9261 135.736 21.1192C135.023 22.2846 134.585 23.6442 134.42 25.1981H150.417C150.225 22.8673 149.403 20.9805 147.95 19.5376C146.497 18.067 144.66 17.3317 142.439 17.3317Z" fill="#1F1F1F"/>
<path d="M166.811 38.2255C164.618 38.2255 162.644 37.726 160.889 36.7271C159.162 35.7005 157.791 34.3131 156.777 32.565C155.79 30.7892 155.297 28.8052 155.297 26.6132C155.297 24.3934 155.79 22.4095 156.777 20.6614C157.791 18.8855 159.162 17.4982 160.889 16.4993C162.644 15.4726 164.618 14.9593 166.811 14.9593C169.004 14.9593 170.965 15.4726 172.692 16.4993C174.419 17.4982 175.776 18.8855 176.763 20.6614C177.777 22.4095 178.285 24.3934 178.285 26.6132V36.7271C178.285 37.0879 178.175 37.3931 177.956 37.6428C177.736 37.8648 177.435 37.9758 177.051 37.9758C176.694 37.9758 176.393 37.8648 176.146 37.6428C175.927 37.3931 175.817 37.0879 175.817 36.7271V33.4807C174.912 34.9236 173.679 36.0751 172.116 36.9352C170.553 37.7954 168.785 38.2255 166.811 38.2255ZM166.811 35.8947C168.538 35.8947 170.074 35.4924 171.417 34.6877C172.788 33.8553 173.857 32.7454 174.625 31.358C175.42 29.9429 175.817 28.3613 175.817 26.6132C175.817 24.8374 175.42 23.2558 174.625 21.8684C173.857 20.4533 172.788 19.3434 171.417 18.5387C170.074 17.7063 168.538 17.2901 166.811 17.2901C165.111 17.2901 163.576 17.7063 162.205 18.5387C160.835 19.3434 159.752 20.4533 158.957 21.8684C158.162 23.2558 157.764 24.8374 157.764 26.6132C157.764 28.3613 158.162 29.9429 158.957 31.358C159.752 32.7454 160.835 33.8553 162.205 34.6877C163.576 35.4924 165.111 35.8947 166.811 35.8947Z" fill="#1F1F1F"/>
<path d="M192.015 37.9758C190.508 37.948 189.164 37.6012 187.985 36.9352C186.806 36.2416 185.888 35.2981 185.23 34.105C184.572 32.8841 184.243 31.5106 184.243 29.9845V18.289H181.036C180.707 18.289 180.432 18.1919 180.213 17.9976C180.021 17.7756 179.925 17.4982 179.925 17.1652C179.925 16.8322 180.021 16.5686 180.213 16.3744C180.432 16.1524 180.707 16.0414 181.036 16.0414H184.243V9.25718C184.243 8.86872 184.353 8.5635 184.572 8.34152C184.819 8.09179 185.12 7.96693 185.477 7.96693C185.861 7.96693 186.162 8.09179 186.382 8.34152C186.628 8.5635 186.752 8.86872 186.752 9.25718V16.0414H192.18C192.509 16.0414 192.769 16.1524 192.961 16.3744C193.181 16.5686 193.29 16.8322 193.29 17.1652C193.29 17.4982 193.181 17.7756 192.961 17.9976C192.769 18.1919 192.509 18.289 192.18 18.289H186.752V29.9845C186.752 31.5939 187.245 32.9119 188.232 33.9385C189.219 34.9374 190.494 35.4369 192.057 35.4369H192.961C193.345 35.4369 193.647 35.5617 193.866 35.8115C194.113 36.0335 194.236 36.3387 194.236 36.7271C194.236 37.0879 194.113 37.3931 193.866 37.6428C193.647 37.8648 193.345 37.9758 192.961 37.9758H192.015Z" fill="#1F1F1F"/>
<path d="M200.212 37.9758C199.856 37.9758 199.554 37.8648 199.307 37.6428C199.088 37.3931 198.978 37.0879 198.978 36.7271V16.4576C198.978 16.0692 199.088 15.764 199.307 15.542C199.554 15.32 199.856 15.209 200.212 15.209C200.596 15.209 200.897 15.32 201.117 15.542C201.336 15.764 201.446 16.0692 201.446 16.4576V36.7271C201.446 37.0879 201.336 37.3931 201.117 37.6428C200.897 37.8648 200.596 37.9758 200.212 37.9758ZM200.171 10.4226C199.65 10.4226 199.198 10.2422 198.814 9.8815C198.458 9.49304 198.279 9.02133 198.279 8.46638C198.279 7.82819 198.471 7.35648 198.855 7.05126C199.266 6.71829 199.719 6.55181 200.212 6.55181C200.678 6.55181 201.103 6.71829 201.487 7.05126C201.898 7.35648 202.104 7.82819 202.104 8.46638C202.104 9.02133 201.912 9.49304 201.528 9.8815C201.172 10.2422 200.719 10.4226 200.171 10.4226Z" fill="#1F1F1F"/>
<path d="M216.179 38.0174C215.658 38.0174 215.274 37.726 215.028 37.1434L205.652 16.8322C205.542 16.527 205.542 16.2357 205.652 15.9582C205.761 15.653 205.967 15.431 206.268 15.2922C206.57 15.1535 206.858 15.1396 207.132 15.2506C207.434 15.3616 207.653 15.5697 207.79 15.8749L216.22 34.3547L224.527 15.8333C224.664 15.5281 224.884 15.32 225.185 15.209C225.514 15.098 225.829 15.1119 226.131 15.2506C226.433 15.3894 226.638 15.6113 226.748 15.9166C226.885 16.194 226.885 16.4854 226.748 16.7906L217.495 37.1434C217.221 37.726 216.782 38.0174 216.179 38.0174Z" fill="#1F1F1F"/>
<path d="M239.254 38.1839C237.088 38.1839 235.155 37.6983 233.455 36.7271C231.783 35.7282 230.467 34.3547 229.508 32.6066C228.548 30.8586 228.068 28.8607 228.068 26.6132C228.068 24.3379 228.521 22.3401 229.425 20.6198C230.33 18.8717 231.577 17.4982 233.168 16.4993C234.758 15.5004 236.581 15.0009 238.637 15.0009C240.666 15.0009 242.461 15.4865 244.024 16.4576C245.587 17.4011 246.807 18.7191 247.684 20.4116C248.561 22.0765 249 24.0049 249 26.197C249 26.5577 248.89 26.8491 248.671 27.071C248.452 27.2653 248.164 27.3624 247.807 27.3624H230.577C230.659 29.0272 231.084 30.4978 231.852 31.7742C232.619 33.0506 233.634 34.0495 234.895 34.7709C236.183 35.4924 237.636 35.8531 239.254 35.8531C240.323 35.8531 241.392 35.6727 242.461 35.312C243.558 34.9236 244.422 34.4241 245.052 33.8137C245.271 33.5917 245.532 33.4807 245.834 33.4807C246.162 33.4529 246.437 33.5362 246.656 33.7304C246.958 33.9801 247.108 34.2576 247.108 34.5628C247.136 34.8681 247.012 35.1455 246.738 35.3953C245.861 36.1999 244.709 36.8659 243.284 37.3931C241.886 37.9203 240.542 38.1839 239.254 38.1839ZM238.637 17.3317C237.211 17.3317 235.923 17.6647 234.771 18.3306C233.62 18.9965 232.674 19.9261 231.934 21.1192C231.221 22.2846 230.782 23.6442 230.618 25.1981H246.615C246.423 22.8673 245.6 20.9805 244.147 19.5376C242.694 18.067 240.858 17.3317 238.637 17.3317Z" fill="#1F1F1F"/>
<path d="M17.0613 38.006C14.9658 38.006 13.0824 37.5174 11.4113 36.5401C9.74016 35.5357 8.41386 34.1783 7.4324 32.4681C6.47747 30.7578 6 28.8168 6 26.6451C6 24.5005 6.4642 22.5731 7.39261 20.8628C8.34754 19.1526 9.63405 17.8088 11.2521 16.8315C12.8702 15.8271 14.7005 15.3249 16.743 15.3249C18.5202 15.3249 20.1251 15.7185 21.5575 16.5058C22.9899 17.2659 24.1437 18.2839 25.0191 19.5598V7.58808C25.0191 7.09944 25.165 6.71939 25.4568 6.44792C25.7486 6.14931 26.1199 6 26.5709 6C27.0218 6 27.3932 6.14931 27.6849 6.44792C27.9767 6.71939 28.1226 7.09944 28.1226 7.58808V26.808C28.0696 28.9254 27.5523 30.8393 26.5709 32.5495C25.6159 34.2326 24.3029 35.5628 22.6318 36.5401C20.9871 37.5174 19.1303 38.006 17.0613 38.006ZM17.0613 35.1556C18.5998 35.1556 19.9659 34.7891 21.1596 34.0562C22.3798 33.296 23.3347 32.278 24.0244 31.0021C24.7406 29.7262 25.0987 28.2739 25.0987 26.6451C25.0987 25.0434 24.7406 23.6047 24.0244 22.3288C23.3347 21.0257 22.3798 20.0077 21.1596 19.2748C19.9659 18.5418 18.5998 18.1753 17.0613 18.1753C15.5493 18.1753 14.1832 18.5418 12.9631 19.2748C11.7429 20.0077 10.7747 21.0257 10.0585 22.3288C9.34227 23.6047 8.98417 25.0434 8.98417 26.6451C8.98417 28.2739 9.34227 29.7262 10.0585 31.0021C10.7747 32.278 11.7429 33.296 12.9631 34.0562C14.1832 34.7891 15.5493 35.1556 17.0613 35.1556Z" fill="#1F1F1F"/>
<path d="M41.2721 38.006C39.15 38.006 37.2534 37.5174 35.5822 36.5401C33.9111 35.5628 32.5981 34.219 31.6431 32.5088C30.6882 30.7985 30.2107 28.8576 30.2107 26.6858C30.2107 24.4869 30.6882 22.5324 31.6431 20.8221C32.5981 19.1119 33.9111 17.7681 35.5822 16.7908C37.2534 15.8135 39.15 15.3249 41.2721 15.3249C43.3941 15.3249 45.2775 15.8135 46.9221 16.7908C48.5932 17.7681 49.9062 19.1119 50.8612 20.8221C51.8161 22.5324 52.3068 24.4869 52.3334 26.6858C52.3334 28.8576 51.8426 30.7985 50.8612 32.5088C49.9062 34.219 48.5932 35.5628 46.9221 36.5401C45.2775 37.5174 43.3941 38.006 41.2721 38.006ZM41.2721 35.1556C42.8106 35.1556 44.1899 34.7891 45.4101 34.0562C46.6303 33.3232 47.5852 32.3188 48.2749 31.0429C48.9646 29.767 49.3094 28.3146 49.3094 26.6858C49.3094 25.057 48.9646 23.6047 48.2749 22.3288C47.5852 21.0257 46.6303 20.0077 45.4101 19.2748C44.1899 18.5418 42.8106 18.1753 41.2721 18.1753C39.7336 18.1753 38.3542 18.5418 37.134 19.2748C35.9138 20.0077 34.9456 21.0257 34.2294 22.3288C33.5397 23.6047 33.1949 25.057 33.1949 26.6858C33.1949 28.3146 33.5397 29.767 34.2294 31.0429C34.9456 32.3188 35.9138 33.3232 37.134 34.0562C38.3542 34.7891 39.7336 35.1556 41.2721 35.1556Z" fill="#1F1F1F"/>
<path d="M55.9226 37.8024C55.4451 37.8024 55.0605 37.6667 54.7687 37.3952C54.5034 37.0966 54.3708 36.7165 54.3708 36.255V17.1166C54.3708 16.6279 54.5034 16.2479 54.7687 15.9764C55.0605 15.6778 55.4451 15.5285 55.9226 15.5285C56.3735 15.5285 56.7316 15.6778 56.9969 15.9764C57.2887 16.2479 57.4346 16.6279 57.4346 17.1166V18.5011C58.2834 17.4966 59.3312 16.7094 60.5779 16.1393C61.8511 15.5692 63.2172 15.2842 64.6761 15.2842C66.5595 15.2842 68.2439 15.6914 69.7293 16.5058C71.2148 17.293 72.3819 18.4604 73.2308 20.0077C74.1061 21.5551 74.5438 23.4418 74.5438 25.6678V36.255C74.5438 36.6894 74.3979 37.0559 74.1061 37.3545C73.8143 37.6531 73.4562 37.8024 73.0318 37.8024C72.5809 37.8024 72.2095 37.6531 71.9177 37.3545C71.6259 37.0559 71.48 36.6894 71.48 36.255V25.6678C71.48 23.1432 70.7904 21.2836 69.411 20.0892C68.0582 18.8676 66.3738 18.2568 64.3578 18.2568C63.0581 18.2568 61.8777 18.5146 60.8166 19.0304C59.7821 19.5462 58.9598 20.252 58.3497 21.1479C57.7396 22.0437 57.4346 23.0617 57.4346 24.2019V36.255C57.4346 36.7165 57.2887 37.0966 56.9969 37.3952C56.7316 37.6667 56.3735 37.8024 55.9226 37.8024Z" fill="#1F1F1F"/>
<path d="M85.7316 38.006C84.1665 38.006 82.6148 37.7345 81.0763 37.1916C79.5378 36.6487 78.291 35.8343 77.3361 34.7484C77.0443 34.4226 76.9249 34.0562 76.978 33.649C77.0311 33.2418 77.23 32.8888 77.5748 32.5902C77.9462 32.3188 78.3308 32.2102 78.7287 32.2645C79.1266 32.3188 79.4582 32.4952 79.7234 32.7938C80.3601 33.5539 81.1956 34.1376 82.2301 34.5448C83.2912 34.952 84.4583 35.1556 85.7316 35.1556C87.6945 35.1556 89.1136 34.8163 89.989 34.1376C90.8643 33.4318 91.3153 32.5902 91.3418 31.6129C91.3418 30.6357 90.8908 29.8348 89.989 29.2105C89.0871 28.5589 87.6016 28.0567 85.5326 27.7038C82.8535 27.2695 80.8906 26.5094 79.6439 25.4235C78.3971 24.3376 77.7738 23.0482 77.7738 21.5551C77.7738 20.1706 78.1319 19.0169 78.8481 18.0939C79.5643 17.1709 80.5192 16.4786 81.7129 16.0171C82.9065 15.5557 84.2196 15.3249 85.652 15.3249C87.4292 15.3249 88.9545 15.6371 90.2277 16.2615C91.5275 16.8858 92.5752 17.7274 93.371 18.7861C93.6363 19.139 93.7424 19.5055 93.6893 19.8856C93.6363 20.2656 93.4241 20.5778 93.0527 20.8221C92.7344 21.0121 92.363 21.08 91.9386 21.0257C91.5407 20.9443 91.1959 20.7407 90.9041 20.4149C89.6043 18.8947 87.8271 18.1346 85.5724 18.1346C84.1135 18.1346 82.9463 18.4468 82.071 19.0712C81.1956 19.6684 80.7579 20.4285 80.7579 21.3515C80.7579 22.2745 81.1426 23.0346 81.9118 23.6318C82.7076 24.229 84.1931 24.7177 86.3682 25.0977C88.3576 25.4235 89.9226 25.9121 91.0633 26.5637C92.2304 27.188 93.0527 27.9346 93.5302 28.8033C94.0342 29.6448 94.2862 30.5678 94.2862 31.5722C94.2862 32.8481 93.9148 33.9747 93.1721 34.952C92.4559 35.9021 91.4479 36.6487 90.1481 37.1916C88.8749 37.7345 87.4027 38.006 85.7316 38.006Z" fill="#1F1F1F"/>
<path d="M107.093 38.006C104.998 38.006 103.128 37.5174 101.483 36.5401C99.8649 35.5357 98.5784 34.1783 97.6235 32.4681C96.6951 30.7578 96.2309 28.8304 96.2309 26.6858C96.2309 24.5141 96.6818 22.5731 97.5837 20.8628C98.4856 19.1526 99.719 17.8088 101.284 16.8315C102.849 15.8271 104.653 15.3249 106.695 15.3249C110.011 15.3249 112.703 16.6279 114.772 19.234C115.064 19.5598 115.17 19.9127 115.091 20.2928C115.011 20.6457 114.786 20.9579 114.414 21.2293C114.123 21.4465 113.791 21.5279 113.42 21.4736C113.075 21.3922 112.77 21.1886 112.505 20.8628C110.966 19.0712 109.03 18.1753 106.695 18.1753C105.21 18.1753 103.897 18.5418 102.756 19.2748C101.642 20.0077 100.767 21.0121 100.13 22.288C99.5201 23.5639 99.215 25.0299 99.215 26.6858C99.215 28.3146 99.5466 29.767 100.21 31.0429C100.873 32.3188 101.801 33.3232 102.995 34.0562C104.189 34.7891 105.555 35.1556 107.093 35.1556C109.215 35.1556 110.926 34.5719 112.226 33.4046C112.544 33.1332 112.876 32.9839 113.221 32.9567C113.566 32.9296 113.884 33.0382 114.176 33.2825C114.494 33.5811 114.666 33.9204 114.693 34.3005C114.746 34.6805 114.627 35.0063 114.335 35.2778C112.398 37.0966 109.985 38.006 107.093 38.006Z" fill="#1F1F1F"/>
</svg>
