<svg width="244" height="244" viewBox="0 0 244 244" fill="none" xmlns="http://www.w3.org/2000/svg">
<g filter="url(#filter0_dd_249_10)">
<rect x="88" y="88" width="68" height="68" rx="5" fill="#DF0078"/>
<path d="M122 137C113.716 137 107 130.284 107 122C107 113.716 113.716 107 122 107C130.284 107 137 113.716 137 122C136.991 130.281 130.281 136.991 122 137ZM110 122.258C110.071 128.86 115.462 134.164 122.064 134.129C128.666 134.093 133.999 128.731 133.999 122.129C133.999 115.527 128.666 110.165 122.064 110.129C115.462 110.094 110.071 115.398 110 122V122.258ZM119 128.75V115.25L128 122L119 128.75Z" fill="white"/>
</g>
<defs>
<filter id="filter0_dd_249_10" x="0" y="0" width="244" height="244" filterUnits="userSpaceOnUse" color-interpolation-filters="sRGB">
<feFlood flood-opacity="0" result="BackgroundImageFix"/>
<feColorMatrix in="SourceAlpha" type="matrix" values="0 0 0 0 0 0 0 0 0 0 0 0 0 0 0 0 0 0 127 0" result="hardAlpha"/>
<feOffset dy="4"/>
<feGaussianBlur stdDeviation="2"/>
<feColorMatrix type="matrix" values="0 0 0 0 0.87451 0 0 0 0 0 0 0 0 0 0.470588 0 0 0 0.32 0"/>
<feBlend mode="normal" in2="BackgroundImageFix" result="effect1_dropShadow_249_10"/>
<feColorMatrix in="SourceAlpha" type="matrix" values="0 0 0 0 0 0 0 0 0 0 0 0 0 0 0 0 0 0 127 0" result="hardAlpha"/>
<feMorphology radius="24" operator="dilate" in="SourceAlpha" result="effect2_dropShadow_249_10"/>
<feOffset/>
<feGaussianBlur stdDeviation="32"/>
<feColorMatrix type="matrix" values="0 0 0 0 0.87451 0 0 0 0 0 0 0 0 0 0.470588 0 0 0 0.64 0"/>
<feBlend mode="normal" in2="effect1_dropShadow_249_10" result="effect2_dropShadow_249_10"/>
<feBlend mode="normal" in="SourceGraphic" in2="effect2_dropShadow_249_10" result="shape"/>
</filter>
</defs>
</svg>
